<?xml version="1.0" encoding="UTF-8"?>
<svg xmlns="http://www.w3.org/2000/svg" xmlns:xlink="http://www.w3.org/1999/xlink" width="200px" height="200px" viewBox="0 0 100 100" version="1.1">
<g id="surface1">
<path style=" stroke:none;fill-rule:nonzero;fill:rgb(64.705884%,41.176471%,74.117649%);fill-opacity:1;" d="M 65.765625 36.265625 C 64.566406 36.832031 64.265625 37.667969 64.632812 39.332031 C 65.234375 41.933594 67.5 45 68.867188 45 C 69.167969 45 69.332031 45.367188 69.332031 46 C 69.332031 46.898438 69.234375 47 68.300781 47 C 67.035156 47 66.132812 47.464844 65.632812 48.367188 C 65.101562 49.367188 65.832031 50.964844 66.964844 51.199219 C 69.667969 51.832031 69.832031 51.898438 69.832031 52.535156 C 69.832031 53.398438 67.867188 53.601562 66.964844 52.800781 C 66.300781 52.199219 65.332031 52.367188 65.332031 53.132812 C 65.332031 53.964844 66.734375 54.667969 68.433594 54.667969 C 70.464844 54.667969 71.867188 53.5 71.5 52.066406 C 71.234375 51 70.667969 50.601562 68.667969 50.167969 C 67.5 49.898438 67.167969 49.667969 67.167969 49.167969 C 67.167969 48.300781 69 48.066406 69.765625 48.800781 C 70.265625 49.300781 71.332031 49.199219 71.332031 48.667969 C 71.332031 48.265625 70.367188 47.332031 69.964844 47.332031 C 69.800781 47.332031 69.667969 46.898438 69.667969 46.367188 C 69.667969 45.566406 69.933594 45.234375 71.101562 44.601562 C 72.566406 43.765625 74 41.667969 74.667969 39.234375 C 75.167969 37.535156 74.898438 36.898438 73.433594 36.265625 C 72.132812 35.667969 71.667969 35.734375 71.667969 36.566406 C 71.667969 36.964844 71.898438 37.035156 72.632812 36.898438 C 74.667969 36.5 74.832031 37.933594 73.132812 41.332031 C 72.167969 43.265625 71.699219 43.832031 70.765625 44.199219 C 68.832031 45.035156 67.464844 44.234375 66.132812 41.601562 C 65.699219 40.765625 65.265625 39.464844 65.132812 38.734375 C 64.964844 37.566406 65.035156 37.332031 65.667969 37 C 66.167969 36.734375 66.5 36.734375 66.800781 36.964844 C 67.300781 37.398438 67.667969 37.101562 67.667969 36.265625 C 67.667969 35.566406 67.234375 35.566406 65.765625 36.265625 M 20.332031 49.667969 L 20.332031 54.667969 L 22.832031 54.667969 C 26.035156 54.667969 27.699219 53.898438 28.667969 52 C 29.898438 49.566406 29.234375 46.898438 27.035156 45.433594 C 26.066406 44.800781 25.464844 44.667969 23.132812 44.667969 L 20.332031 44.667969 Z M 26.699219 47.300781 C 27.101562 47.800781 27.332031 48.601562 27.332031 49.566406 C 27.332031 50.765625 27.132812 51.234375 26.367188 52.035156 C 25.566406 52.832031 25.101562 53 23.765625 53 L 22.167969 53 L 22.234375 49.601562 C 22.265625 47.699219 22.300781 46.167969 22.300781 46.132812 C 22.332031 46.132812 23.167969 46.234375 24.199219 46.332031 C 25.601562 46.5 26.265625 46.734375 26.699219 47.300781 M 48.234375 49.566406 L 48.300781 54.5 L 51.632812 54.601562 L 55 54.699219 L 55 53.832031 C 55 53 54.964844 53 52.5 53 L 50 53 L 50 50.332031 L 52.300781 50.332031 C 54.332031 50.332031 54.601562 50.265625 54.765625 49.632812 C 55 48.734375 54.398438 48.535156 51.964844 48.765625 L 50 48.933594 L 50 45.898438 L 55 46.367188 L 55 44.667969 L 48.167969 44.667969 Z M 31.800781 48.132812 C 30.867188 49.066406 30.667969 49.535156 30.667969 50.667969 C 30.667969 53.265625 32.101562 54.667969 34.667969 54.667969 C 37.566406 54.667969 39.265625 51.265625 37.699219 48.734375 C 36.933594 47.535156 35.867188 47 34.101562 47 C 33.199219 47 32.667969 47.265625 31.800781 48.132812 M 36.101562 49.398438 C 36.898438 50.367188 36.800781 51.566406 35.800781 52.535156 C 35.167969 53.199219 34.765625 53.332031 34.101562 53.167969 C 32.167969 52.699219 31.667969 50.234375 33.234375 49.035156 C 34.234375 48.234375 35.167969 48.367188 36.101562 49.398438 M 40.800781 48.132812 C 39.832031 49.101562 39.667969 49.5 39.667969 50.867188 C 39.699219 53.367188 41.035156 54.667969 43.601562 54.667969 C 44.832031 54.667969 46.667969 53.667969 46.667969 53 C 46.667969 52.398438 45.464844 52.332031 44.433594 52.898438 C 43.367188 53.464844 43.332031 53.464844 42.433594 52.800781 C 41.066406 51.800781 40.964844 50 42.199219 49.035156 C 43.167969 48.265625 44.199219 48.332031 44.898438 49.234375 C 45.199219 49.632812 45.398438 49.632812 45.964844 49.265625 C 46.867188 48.699219 46.832031 48.535156 45.800781 47.699219 C 45.199219 47.234375 44.433594 47 43.433594 47 C 42.167969 47 41.765625 47.167969 40.800781 48.132812 M 58.035156 47.464844 C 56.898438 48.101562 56.367188 49.265625 56.332031 51.101562 C 56.332031 52.464844 56.5 52.867188 57.300781 53.699219 C 58.066406 54.464844 58.566406 54.667969 59.699219 54.667969 C 60.535156 54.667969 61.367188 54.433594 61.734375 54.101562 C 62.300781 53.601562 62.332031 53.601562 62.332031 54.101562 C 62.332031 54.464844 62.601562 54.667969 63.167969 54.667969 L 64 54.667969 L 64 47 L 63.167969 47 C 62.632812 47 62.332031 47.199219 62.332031 47.535156 C 62.332031 48 62.265625 48 61.601562 47.535156 C 60.699219 46.898438 59.132812 46.867188 58.035156 47.464844 M 61.464844 49.035156 C 63.066406 50.300781 62.132812 53.332031 60.132812 53.332031 C 58.101562 53.332031 57.167969 50.5 58.667969 49 C 59.535156 48.132812 60.367188 48.167969 61.464844 49.035156 M 74.832031 47.300781 C 73.601562 47.800781 72.898438 48.933594 72.734375 50.667969 C 72.601562 52.199219 72.667969 52.398438 73.765625 53.5 C 74.734375 54.464844 75.167969 54.667969 76.300781 54.667969 C 77.933594 54.667969 79.667969 53.867188 79.667969 53.132812 C 79.667969 52.699219 79.464844 52.632812 78.765625 52.800781 C 76.433594 53.398438 75.964844 53.398438 75.167969 52.867188 C 74.699219 52.566406 74.332031 52.101562 74.332031 51.832031 C 74.332031 51.433594 74.898438 51.332031 77.332031 51.332031 C 80.234375 51.332031 80.332031 51.300781 80.332031 50.566406 C 80.332031 49.5 79.132812 47.699219 78.132812 47.332031 C 77.132812 46.933594 75.765625 46.933594 74.832031 47.300781 M 78.132812 49.066406 C 78.433594 49.464844 78.667969 49.933594 78.667969 50.066406 C 78.667969 50.234375 77.699219 50.332031 76.5 50.332031 C 74.199219 50.332031 73.898438 50.101562 75 49 C 75.898438 48.101562 77.5 48.132812 78.132812 49.066406 M 68.167969 56.234375 C 67.800781 56.332031 66.367188 56.933594 65 57.601562 C 61.101562 59.464844 56.667969 59.464844 56.667969 57.667969 C 56.667969 57.300781 56.535156 57 56.332031 57 C 55.734375 57 55.964844 58.199219 56.699219 58.867188 C 57.265625 59.367188 57.898438 59.5 59.800781 59.5 C 61.832031 59.5 62.566406 59.300781 65 58.199219 C 68.800781 56.433594 72.667969 56.132812 72.667969 57.535156 C 72.667969 57.964844 72.433594 58.035156 71.667969 57.867188 C 71.101562 57.765625 70.667969 57.832031 70.667969 58 C 70.667969 58.199219 71.199219 58.332031 71.832031 58.332031 C 73.199219 58.332031 73.699219 57.566406 72.898438 56.765625 C 72.367188 56.199219 69.433594 55.867188 68.167969 56.234375 "/>
</g>
</svg>
