 <svg  version="1.0" xmlns="http://www.w3.org/2000/svg"  width="300.000000pt" height="300.000000pt" viewBox="0 0 300.000000 300.000000"  preserveAspectRatio="xMidYMid meet">  <g transform="translate(0.000000,300.000000) scale(0.100000,-0.100000)" fill="#a569bd" stroke="none"> <path d="M1973 1912 c-36 -17 -45 -42 -34 -92 18 -78 86 -170 127 -170 9 0 14 -11 14 -30 0 -27 -3 -30 -31 -30 -38 0 -65 -14 -80 -41 -16 -30 6 -78 40 -85 81 -19 86 -21 86 -40 0 -26 -59 -32 -86 -8 -20 18 -49 13 -49 -10 0 -25 42 -46 93 -46 61 0 103 35 92 78 -8 32 -25 44 -85 57 -35 8 -45 15 -45 30 0 26 55 33 78 11 15 -15 47 -12 47 4 0 12 -29 40 -41 40 -5 0 -9 13 -9 29 0 24 8 34 43 53 44 25 87 88 107 161 15 51 7 70 -37 89 -39 18 -53 16 -53 -9 0 -12 7 -14 29 -10 61 12 66 -31 15 -133 -29 -58 -43 -75 -71 -86 -58 -25 -99 -1 -139 78 -13 25 -26 64 -30 86 -5 35 -3 42 16 52 15 8 25 8 34 1 15 -13 26 -4 26 21 0 21 -13 21 -57 0z"/> <path d="M610 1510 l0 -150 75 0 c96 0 146 23 175 80 37 73 17 153 -49 197 -29 19 -47 23 -117 23 l-84 0 0 -150z m191 71 c12 -15 19 -39 19 -68 0 -36 -6 -50 -29 -74 -24 -24 -38 -29 -78 -29 l-48 0 2 102 c1 57 2 103 2 104 1 0 26 -3 57 -6 42 -5 62 -12 75 -29z"/> <path d="M1447 1513 l2 -148 100 -3 101 -3 0 26 c0 25 -1 25 -75 25 l-75 0 0 40 0 40 69 0 c61 0 69 2 74 21 7 27 -11 33 -84 26 l-59 -5 0 45 0 46 75 -7 75 -7 0 26 0 25 -102 0 -103 0 2 -147z"/> <path d="M954 1556 c-28 -28 -34 -42 -34 -76 0 -78 43 -120 120 -120 87 0 138 102 91 178 -23 36 -55 52 -108 52 -27 0 -43 -8 -69 -34z m129 -38 c24 -29 21 -65 -9 -94 -19 -20 -31 -24 -51 -19 -58 14 -73 88 -26 124 30 24 58 20 86 -11z"/> <path d="M1224 1556 c-29 -29 -34 -41 -34 -82 1 -75 41 -114 118 -114 37 0 92 30 92 50 0 18 -36 20 -67 3 -32 -17 -33 -17 -60 3 -41 30 -44 84 -7 113 29 23 60 21 81 -6 9 -12 15 -12 32 -1 27 17 26 22 -5 47 -18 14 -41 21 -71 21 -38 0 -50 -5 -79 -34z"/> <path d="M1741 1576 c-34 -19 -50 -54 -51 -109 0 -41 5 -53 29 -78 23 -23 38 -29 72 -29 25 0 50 7 61 17 17 15 18 15 18 0 0 -11 8 -17 25 -17 l25 0 0 115 0 115 -25 0 c-16 0 -25 -6 -25 -16 0 -14 -2 -14 -22 0 -27 19 -74 20 -107 2z m103 -47 c48 -38 20 -129 -40 -129 -61 0 -89 85 -44 130 26 26 51 25 84 -1z"/> <path d="M2245 1581 c-37 -15 -58 -49 -63 -101 -4 -46 -2 -52 31 -85 29 -29 42 -35 76 -35 49 0 101 24 101 46 0 13 -6 15 -27 10 -70 -18 -84 -18 -108 -2 -14 9 -25 23 -25 31 0 12 17 15 90 15 87 0 90 1 90 23 0 32 -36 86 -66 97 -30 12 -71 12 -99 1z m99 -53 c9 -12 16 -26 16 -30 0 -5 -29 -8 -65 -8 -69 0 -78 7 -45 40 27 27 75 26 94 -2z"/> <path d="M2045 1313 c-11 -3 -54 -21 -95 -41 -117 -56 -250 -56 -250 -2 0 11 -4 20 -10 20 -18 0 -11 -36 11 -56 17 -15 36 -19 93 -19 61 0 83 6 156 39 114 53 230 62 230 20 0 -13 -7 -15 -30 -10 -17 3 -30 1 -30 -4 0 -6 16 -10 35 -10 41 0 56 23 32 47 -16 17 -104 27 -142 16z"/> </g> </svg> 